<?xml version="1.0" encoding="UTF-8"?>
<!DOCTYPE svg PUBLIC "-//W3C//DTD SVG 1.1//EN" "http://www.w3.org/Graphics/SVG/1.1/DTD/svg11.dtd">
<!-- Creator: CorelDRAW 2019 (64-Bit) -->
<svg xmlns="http://www.w3.org/2000/svg" xml:space="preserve" width="47.6248mm" height="47.6248mm" version="1.1" style="shape-rendering:geometricPrecision; text-rendering:geometricPrecision; image-rendering:optimizeQuality; fill-rule:evenodd; clip-rule:evenodd"
viewBox="0 0 4762.48 4762.48"
 xmlns:xlink="http://www.w3.org/1999/xlink"
 xmlns:xodm="http://www.corel.com/coreldraw/odm/2003">
 <defs>
  <style type="text/css">
   <![CDATA[
    .fil0 {fill:black;fill-rule:nonzero}
   ]]>
  </style>
 </defs>
 <g id="Слой_x0020_1">
  <metadata id="CorelCorpID_0Corel-Layer"/>
  <path class="fil0" d="M555.05 2042.64l162.82 -80.3 257.36 -385.4 78.79 -32.12 84.04 390.76 -110.31 16.05 -84.03 -160.58 -63.02 251.59 278.37 0 288.87 74.92 115.57 -74.92 194.33 203.4 84.03 -374.69 136.58 139.17 84.03 -117.77 136.55 -37.47 199.6 -187.33 31.52 -91.01 162.82 26.76 68.29 91.01 -120.81 256.92 299.38 -155.22 0 -74.94 115.56 -26.76 126.05 128.46 126.05 -155.22 0 -107.06 204.86 -144.53 84.04 -123.12 131.31 0 231.09 -476.4 199.6 -208.75 73.53 117.77 -115.55 149.88 42.02 96.35 110.3 21.4 89.27 396.11 0 331.87 157.59 219.47 78.79 305.1 -273.13 -176.64 -120.81 -508.51 -73.52 16.05 -10.51 342.57 -199.6 326.53 -57.76 497.8 136.55 32.11 57.79 -69.59 131.29 149.89 99.8 449.63 -10.51 289.06 -126.05 0 -47.28 -406.83 -89.29 123.13 -194.34 -42.83 -157.56 -133.81 -178.59 64.23 10.5 289.05 -141.79 37.48 -210.1 160.57 -252.12 -32.11 -99.8 -58.88 -157.56 26.76 52.52 64.23 -126.05 74.94 -99.8 -48.18 -189.1 85.65 -288.87 -144.52 -110.3 -256.95 -94.54 10.71 -110.3 -90.98 -5.27 -69.59 -351.89 -37.47 -57.79 192.69 -220.61 -101.7 -110.3 -187.34 -236.35 0 -26.25 299.75 -136.58 42.83 -68.26 272.99 -52.55 -48.19 -220.58 -572.73 262.62 -128.49 -42.04 -251.56 -42.01 -256.94 115.57 -165.93 -36.78 -101.71 157.58 -171.28 63.03 10.71zm3492.83 631.61l241.62 364 78.77 -32.11 -99.78 -149.89 -220.61 -235.52 0 53.52zm-2468.63 -738.67l0 -107.06 183.83 -133.81 157.59 -80.3 -183.84 0 -162.82 96.34 -99.8 91.02 0 133.81 105.04 0z"/>
 </g>
</svg>
